# xmcd
#
# Track frame offsets: 
#        183
#        14468
#        27738
#        41960
#        54513
#        67633
#        81678
#        95283
#        108330
#        123348
#        136233
#        150773
#        164598
#        178733
#        192770
#        207403
#        220633
#        234025
#        248548
#        262158
#        274485
#        287558
#        299823
#        314945
#        327865
#
# Disc length: 4543 seconds
#
# Revision: 1
# Processed by: cddbd v1.5.2PL0 Copyright (c) Steve Scherf et al.
# Submitted via: ExactAudioCopy v1.3
#
DISCID=7a11bd19
DTITLE=Henry Hall and His Orchestra - Henry Hall and His Orchestra
DYEAR=1997
DGENRE=British Dance Bands
TTITLE0=Leslie Douglas, Henry Hall and His Orchestra 1939 - Teachers Pet
TTITLE1=Bob Mallin, Henry Hall and His Orchestra 1939 - Proud Of You
TTITLE2=George Elrick, Henry Hall and His Orchestra 1937 - The Goona Goo
TTITLE3=George Elrick, Henry Hall and His Orchestra 1937 - one, Two Butt
TTITLE3=on Your Shoe
TTITLE4=Dan Donovan, Henry Hall and His Orchestra 1935 - Blue Moon
TTITLE5=Elizabeth Cott, Henry Hall and His Orchestra 1936 - It's A Sin T
TTITLE5=o Tell A Lie
TTITLE6=Hildegard, Henry Hall and His Orchestra 1935 - Honey Coloured Mo
TTITLE6=on
TTITLE7=Dan Donovan, Henry Hall and His Orchestra 1935 - Anything Goes
TTITLE8=Dan Donovan, Henry Hall and His Orchestra 1935 - Seein' Is Belie
TTITLE8=vin'
TTITLE9=Dan Donovan, Henry Hall and His Orchestra 1935 - My Dance
TTITLE10=Val Rosing, Henry Hall and His Orchestra 1932 - The Clouds Will
TTITLE10=Soon Roll By
TTITLE11=Leslie Douglas, Henry Hall and His Orchestra 1939 - I Paid For 
TTITLE11=The Lie That I Told You
TTITLE12=Val Rosing, Henry Hall and His Orchestra 1932 - Lullaby Of The 
TTITLE12=leaves
TTITLE13=Leslie Douglas, Henry Hall and His Orchestra 1939 - Love Makes 
TTITLE13=The World Go Round
TTITLE14=Dan Donovan, Henry Hall and His Orchestra 1935 - Big Ship
TTITLE15=Phyllis Robbins. Henry Hall and His Orchestra 1933 - It's The T
TTITLE15=alk Of The town
TTITLE16=Len Bermon, Henry Hall and His Orchestra 1933 - Leave The Prett
TTITLE16=y Girls Alone
TTITLE17=Phyllis Robbins and Les Allen. Henry Hall and His Orchestra 1933 
TTITLE17=/ Making Conversation
TTITLE18=Dan Donovan, Henry Hall and His Orchestra 1936 - The Broken Rec
TTITLE18=ord
TTITLE19=George Elrick, Henry Hall and His Orchestra 1936 - Saddle Your 
TTITLE19=Blues To A Wild Mustang
TTITLE20=Leslie Douglas, Henry Hall and His Orchestra 1939 - If Ever A H
TTITLE20=eart Was In The Right Place
TTITLE21=Les Allen, Henry Hall and His Orchestra 1933 - Who's Afraid Of 
TTITLE21=The Big Bad Wolf
TTITLE22=Les Allen, Henry Hall and His Orchestra 1934 - Whistling Rufus
TTITLE23=Val Rosing, Henry Hall and His Orchestra 1932 - Hush' Hush, Hus
TTITLE23=h Here Comes That Bogey Man
TTITLE24=Val Rosing, Henry Hall and His Orchestra 1932 - The Teddy Bear'
TTITLE24=s Picnic
EXTD=
EXTT0=
EXTT1=
EXTT2=
EXTT3=
EXTT4=
EXTT5=
EXTT6=
EXTT7=
EXTT8=
EXTT9=
EXTT10=
EXTT11=
EXTT12=
EXTT13=
EXTT14=
EXTT15=
EXTT16=
EXTT17=
EXTT18=
EXTT19=
EXTT20=
EXTT21=
EXTT22=
EXTT23=
EXTT24=
PLAYORDER=
